<mxfile host="app.diagrams.net" modified="2023-07-24T00:20:31.494Z" agent="Mozilla/5.0 (Windows NT 10.0; Win64; x64) AppleWebKit/537.36 (KHTML, like Gecko) Chrome/115.0.0.0 Safari/537.36" etag="u2k7YOxMnW1Vbt--PVl9" version="21.6.5" type="github">
  <diagram name="Page-1" id="99iIfLt2F32B8J6IHA8s">
    <mxGraphModel dx="2074" dy="1110" grid="1" gridSize="10" guides="1" tooltips="1" connect="1" arrows="1" fold="1" page="1" pageScale="1" pageWidth="827" pageHeight="1169" math="0" shadow="0">
      <root>
        <mxCell id="0" />
        <mxCell id="1" parent="0" />
        <mxCell id="QrlT-nnsfVJXZwPksdV2-3" value="" style="edgeStyle=orthogonalEdgeStyle;rounded=0;orthogonalLoop=1;jettySize=auto;html=1;" edge="1" parent="1" source="QrlT-nnsfVJXZwPksdV2-1" target="QrlT-nnsfVJXZwPksdV2-2">
          <mxGeometry relative="1" as="geometry" />
        </mxCell>
        <mxCell id="QrlT-nnsfVJXZwPksdV2-5" value="" style="edgeStyle=orthogonalEdgeStyle;rounded=0;orthogonalLoop=1;jettySize=auto;html=1;" edge="1" parent="1" source="QrlT-nnsfVJXZwPksdV2-1" target="QrlT-nnsfVJXZwPksdV2-4">
          <mxGeometry relative="1" as="geometry" />
        </mxCell>
        <mxCell id="QrlT-nnsfVJXZwPksdV2-7" value="" style="edgeStyle=orthogonalEdgeStyle;rounded=0;orthogonalLoop=1;jettySize=auto;html=1;" edge="1" parent="1" source="QrlT-nnsfVJXZwPksdV2-1" target="QrlT-nnsfVJXZwPksdV2-6">
          <mxGeometry relative="1" as="geometry" />
        </mxCell>
        <mxCell id="QrlT-nnsfVJXZwPksdV2-9" value="" style="edgeStyle=orthogonalEdgeStyle;rounded=0;orthogonalLoop=1;jettySize=auto;html=1;" edge="1" parent="1" source="QrlT-nnsfVJXZwPksdV2-1" target="QrlT-nnsfVJXZwPksdV2-2">
          <mxGeometry relative="1" as="geometry" />
        </mxCell>
        <mxCell id="QrlT-nnsfVJXZwPksdV2-12" value="" style="edgeStyle=orthogonalEdgeStyle;rounded=0;orthogonalLoop=1;jettySize=auto;html=1;" edge="1" parent="1" source="QrlT-nnsfVJXZwPksdV2-1" target="QrlT-nnsfVJXZwPksdV2-11">
          <mxGeometry relative="1" as="geometry" />
        </mxCell>
        <mxCell id="QrlT-nnsfVJXZwPksdV2-1" value="معيص" style="shape=umlActor;verticalLabelPosition=bottom;verticalAlign=top;html=1;outlineConnect=0;" vertex="1" parent="1">
          <mxGeometry x="387.5" y="530" width="30" height="60" as="geometry" />
        </mxCell>
        <mxCell id="QrlT-nnsfVJXZwPksdV2-2" value="add q&amp;amp;a" style="ellipse;whiteSpace=wrap;html=1;aspect=fixed;" vertex="1" parent="1">
          <mxGeometry x="228.5" y="520" width="80" height="80" as="geometry" />
        </mxCell>
        <mxCell id="QrlT-nnsfVJXZwPksdV2-4" value="view &amp;amp; choose a letter" style="ellipse;whiteSpace=wrap;html=1;aspect=fixed;" vertex="1" parent="1">
          <mxGeometry x="362.5" y="670" width="80" height="80" as="geometry" />
        </mxCell>
        <mxCell id="QrlT-nnsfVJXZwPksdV2-6" value="show the Q&amp;amp;A" style="ellipse;whiteSpace=wrap;html=1;aspect=fixed;" vertex="1" parent="1">
          <mxGeometry x="498.5" y="520" width="80" height="80" as="geometry" />
        </mxCell>
        <mxCell id="QrlT-nnsfVJXZwPksdV2-10" value="" style="edgeStyle=orthogonalEdgeStyle;rounded=0;orthogonalLoop=1;jettySize=auto;html=1;" edge="1" parent="1" source="QrlT-nnsfVJXZwPksdV2-8" target="QrlT-nnsfVJXZwPksdV2-4">
          <mxGeometry relative="1" as="geometry">
            <Array as="points">
              <mxPoint x="325.5" y="680" />
              <mxPoint x="325.5" y="570" />
              <mxPoint x="402.5" y="570" />
            </Array>
          </mxGeometry>
        </mxCell>
        <mxCell id="QrlT-nnsfVJXZwPksdV2-8" value="delete a Q" style="ellipse;whiteSpace=wrap;html=1;aspect=fixed;" vertex="1" parent="1">
          <mxGeometry x="188.5" y="640" width="80" height="80" as="geometry" />
        </mxCell>
        <mxCell id="QrlT-nnsfVJXZwPksdV2-11" value="import q&amp;amp;a" style="ellipse;whiteSpace=wrap;html=1;aspect=fixed;" vertex="1" parent="1">
          <mxGeometry x="362.5" y="400" width="80" height="80" as="geometry" />
        </mxCell>
        <mxCell id="QrlT-nnsfVJXZwPksdV2-13" value="add q&amp;amp;a" style="ellipse;whiteSpace=wrap;html=1;aspect=fixed;" vertex="1" parent="1">
          <mxGeometry x="148.5" y="130" width="80" height="80" as="geometry" />
        </mxCell>
        <mxCell id="QrlT-nnsfVJXZwPksdV2-14" value="view &amp;amp; choose a letter" style="ellipse;whiteSpace=wrap;html=1;aspect=fixed;" vertex="1" parent="1">
          <mxGeometry x="329.5" y="260" width="80" height="80" as="geometry" />
        </mxCell>
        <mxCell id="QrlT-nnsfVJXZwPksdV2-15" value="show the Q&amp;amp;A" style="ellipse;whiteSpace=wrap;html=1;aspect=fixed;" vertex="1" parent="1">
          <mxGeometry x="539.5" y="260" width="80" height="80" as="geometry" />
        </mxCell>
        <mxCell id="QrlT-nnsfVJXZwPksdV2-16" value="delete a Q" style="ellipse;whiteSpace=wrap;html=1;aspect=fixed;" vertex="1" parent="1">
          <mxGeometry x="148.5" y="260" width="80" height="80" as="geometry" />
        </mxCell>
        <mxCell id="QrlT-nnsfVJXZwPksdV2-17" value="import q&amp;amp;a" style="ellipse;whiteSpace=wrap;html=1;aspect=fixed;" vertex="1" parent="1">
          <mxGeometry x="148.5" y="20" width="80" height="80" as="geometry" />
        </mxCell>
        <mxCell id="QrlT-nnsfVJXZwPksdV2-18" value="Q" style="swimlane;fontStyle=0;childLayout=stackLayout;horizontal=1;startSize=30;horizontalStack=0;resizeParent=1;resizeParentMax=0;resizeLast=0;collapsible=1;marginBottom=0;whiteSpace=wrap;html=1;" vertex="1" parent="1">
          <mxGeometry x="314" y="950" width="140" height="120" as="geometry" />
        </mxCell>
        <mxCell id="QrlT-nnsfVJXZwPksdV2-19" value="Question" style="text;strokeColor=none;fillColor=none;align=left;verticalAlign=middle;spacingLeft=4;spacingRight=4;overflow=hidden;points=[[0,0.5],[1,0.5]];portConstraint=eastwest;rotatable=0;whiteSpace=wrap;html=1;" vertex="1" parent="QrlT-nnsfVJXZwPksdV2-18">
          <mxGeometry y="30" width="140" height="30" as="geometry" />
        </mxCell>
        <mxCell id="QrlT-nnsfVJXZwPksdV2-20" value="Letter Id" style="text;strokeColor=none;fillColor=none;align=left;verticalAlign=middle;spacingLeft=4;spacingRight=4;overflow=hidden;points=[[0,0.5],[1,0.5]];portConstraint=eastwest;rotatable=0;whiteSpace=wrap;html=1;" vertex="1" parent="QrlT-nnsfVJXZwPksdV2-18">
          <mxGeometry y="60" width="140" height="30" as="geometry" />
        </mxCell>
        <mxCell id="QrlT-nnsfVJXZwPksdV2-21" value="Item 3" style="text;strokeColor=none;fillColor=none;align=left;verticalAlign=middle;spacingLeft=4;spacingRight=4;overflow=hidden;points=[[0,0.5],[1,0.5]];portConstraint=eastwest;rotatable=0;whiteSpace=wrap;html=1;" vertex="1" parent="QrlT-nnsfVJXZwPksdV2-18">
          <mxGeometry y="90" width="140" height="30" as="geometry" />
        </mxCell>
        <mxCell id="QrlT-nnsfVJXZwPksdV2-22" value="A" style="swimlane;fontStyle=0;childLayout=stackLayout;horizontal=1;startSize=30;horizontalStack=0;resizeParent=1;resizeParentMax=0;resizeLast=0;collapsible=1;marginBottom=0;whiteSpace=wrap;html=1;" vertex="1" parent="1">
          <mxGeometry x="160" y="790" width="140" height="120" as="geometry" />
        </mxCell>
        <mxCell id="QrlT-nnsfVJXZwPksdV2-23" value="Answer" style="text;strokeColor=none;fillColor=none;align=left;verticalAlign=middle;spacingLeft=4;spacingRight=4;overflow=hidden;points=[[0,0.5],[1,0.5]];portConstraint=eastwest;rotatable=0;whiteSpace=wrap;html=1;" vertex="1" parent="QrlT-nnsfVJXZwPksdV2-22">
          <mxGeometry y="30" width="140" height="30" as="geometry" />
        </mxCell>
        <mxCell id="QrlT-nnsfVJXZwPksdV2-24" value="Q id" style="text;strokeColor=none;fillColor=none;align=left;verticalAlign=middle;spacingLeft=4;spacingRight=4;overflow=hidden;points=[[0,0.5],[1,0.5]];portConstraint=eastwest;rotatable=0;whiteSpace=wrap;html=1;" vertex="1" parent="QrlT-nnsfVJXZwPksdV2-22">
          <mxGeometry y="60" width="140" height="30" as="geometry" />
        </mxCell>
        <mxCell id="QrlT-nnsfVJXZwPksdV2-25" value="Item 3" style="text;strokeColor=none;fillColor=none;align=left;verticalAlign=middle;spacingLeft=4;spacingRight=4;overflow=hidden;points=[[0,0.5],[1,0.5]];portConstraint=eastwest;rotatable=0;whiteSpace=wrap;html=1;" vertex="1" parent="QrlT-nnsfVJXZwPksdV2-22">
          <mxGeometry y="90" width="140" height="30" as="geometry" />
        </mxCell>
        <mxCell id="QrlT-nnsfVJXZwPksdV2-30" style="edgeStyle=orthogonalEdgeStyle;rounded=0;orthogonalLoop=1;jettySize=auto;html=1;entryX=1;entryY=0.5;entryDx=0;entryDy=0;endArrow=ERmany;endFill=0;" edge="1" parent="1" source="QrlT-nnsfVJXZwPksdV2-26" target="QrlT-nnsfVJXZwPksdV2-20">
          <mxGeometry relative="1" as="geometry" />
        </mxCell>
        <mxCell id="QrlT-nnsfVJXZwPksdV2-26" value="L" style="swimlane;fontStyle=0;childLayout=stackLayout;horizontal=1;startSize=30;horizontalStack=0;resizeParent=1;resizeParentMax=0;resizeLast=0;collapsible=1;marginBottom=0;whiteSpace=wrap;html=1;" vertex="1" parent="1">
          <mxGeometry x="480" y="800" width="140" height="120" as="geometry" />
        </mxCell>
        <mxCell id="QrlT-nnsfVJXZwPksdV2-27" value="Item 1" style="text;strokeColor=none;fillColor=none;align=left;verticalAlign=middle;spacingLeft=4;spacingRight=4;overflow=hidden;points=[[0,0.5],[1,0.5]];portConstraint=eastwest;rotatable=0;whiteSpace=wrap;html=1;" vertex="1" parent="QrlT-nnsfVJXZwPksdV2-26">
          <mxGeometry y="30" width="140" height="30" as="geometry" />
        </mxCell>
        <mxCell id="QrlT-nnsfVJXZwPksdV2-28" value="Item 2" style="text;strokeColor=none;fillColor=none;align=left;verticalAlign=middle;spacingLeft=4;spacingRight=4;overflow=hidden;points=[[0,0.5],[1,0.5]];portConstraint=eastwest;rotatable=0;whiteSpace=wrap;html=1;" vertex="1" parent="QrlT-nnsfVJXZwPksdV2-26">
          <mxGeometry y="60" width="140" height="30" as="geometry" />
        </mxCell>
        <mxCell id="QrlT-nnsfVJXZwPksdV2-29" value="Item 3" style="text;strokeColor=none;fillColor=none;align=left;verticalAlign=middle;spacingLeft=4;spacingRight=4;overflow=hidden;points=[[0,0.5],[1,0.5]];portConstraint=eastwest;rotatable=0;whiteSpace=wrap;html=1;" vertex="1" parent="QrlT-nnsfVJXZwPksdV2-26">
          <mxGeometry y="90" width="140" height="30" as="geometry" />
        </mxCell>
        <mxCell id="QrlT-nnsfVJXZwPksdV2-33" style="edgeStyle=orthogonalEdgeStyle;rounded=0;orthogonalLoop=1;jettySize=auto;html=1;entryX=0;entryY=0.5;entryDx=0;entryDy=0;endArrow=ERmany;endFill=0;" edge="1" parent="1" source="QrlT-nnsfVJXZwPksdV2-20" target="QrlT-nnsfVJXZwPksdV2-24">
          <mxGeometry relative="1" as="geometry" />
        </mxCell>
        <mxCell id="QrlT-nnsfVJXZwPksdV2-35" value="models" style="text;html=1;align=center;verticalAlign=middle;resizable=0;points=[];autosize=1;strokeColor=none;fillColor=none;" vertex="1" parent="1">
          <mxGeometry x="680" y="958" width="60" height="30" as="geometry" />
        </mxCell>
        <mxCell id="QrlT-nnsfVJXZwPksdV2-36" value="migrations" style="text;html=1;align=center;verticalAlign=middle;resizable=0;points=[];autosize=1;strokeColor=none;fillColor=none;" vertex="1" parent="1">
          <mxGeometry x="680" y="920" width="80" height="30" as="geometry" />
        </mxCell>
        <mxCell id="QrlT-nnsfVJXZwPksdV2-37" value="controllers" style="text;html=1;align=center;verticalAlign=middle;resizable=0;points=[];autosize=1;strokeColor=none;fillColor=none;" vertex="1" parent="1">
          <mxGeometry x="650" y="528" width="80" height="30" as="geometry" />
        </mxCell>
        <mxCell id="QrlT-nnsfVJXZwPksdV2-38" value="routes&lt;span style=&quot;white-space: pre;&quot;&gt;&#x9;&lt;/span&gt;" style="text;html=1;align=center;verticalAlign=middle;resizable=0;points=[];autosize=1;strokeColor=none;fillColor=none;" vertex="1" parent="1">
          <mxGeometry x="660" y="158" width="80" height="30" as="geometry" />
        </mxCell>
        <mxCell id="QrlT-nnsfVJXZwPksdV2-39" value="views" style="text;html=1;align=center;verticalAlign=middle;resizable=0;points=[];autosize=1;strokeColor=none;fillColor=none;" vertex="1" parent="1">
          <mxGeometry x="675" y="420" width="50" height="30" as="geometry" />
        </mxCell>
      </root>
    </mxGraphModel>
  </diagram>
</mxfile>
